<svg width="24" height="25" viewBox="0 0 24 25" fill="none" xmlns="http://www.w3.org/2000/svg">
<path d="M1.24539 4.98393C1.21851 4.82289 1.19393 4.67143 1.17156 4.53042C1.51503 4.55129 1.91272 4.56723 2.34793 4.57011C3.77 4.57952 5.66432 4.4506 7.3837 3.85125C9.02769 3.27818 10.4882 2.51875 11.5323 1.90779C11.9753 1.64856 12.3466 1.41413 12.6289 1.229C12.9126 1.43257 13.2872 1.69094 13.7275 1.97062C14.7328 2.60902 16.1228 3.38517 17.5826 3.85827C19.0656 4.33889 20.707 4.46946 21.9393 4.48826C22.2906 4.49362 22.614 4.48993 22.8977 4.48184C22.8798 4.64967 22.8594 4.83374 22.8362 5.03244C22.7128 6.08822 22.5102 7.55248 22.1938 9.18469C21.5539 12.486 20.4739 16.3328 18.734 18.9185C16.951 21.5681 15.3373 22.8298 14.2356 23.4322C13.6831 23.7343 13.2505 23.8755 12.9767 23.9416C12.8394 23.9748 12.7408 23.9894 12.6856 23.9957C12.67 23.9974 12.6578 23.9986 12.6492 23.9993C12.6352 23.9984 12.6132 23.9969 12.5836 23.994C12.508 23.9866 12.3827 23.9703 12.2146 23.935C11.8789 23.8645 11.37 23.7176 10.7419 23.411C9.49237 22.8009 7.73018 21.5385 5.91374 18.9085C4.11735 16.3074 2.8782 12.4453 2.0875 9.1422C1.69618 7.50746 1.4218 6.04112 1.24539 4.98393Z" stroke="#747474" stroke-width="2"/>
</svg>
